<?xml version="1.0" encoding="utf-8"?>
<!-- Generator: Adobe Illustrator 19.0.0, SVG Export Plug-In . SVG Version: 6.00 Build 0)  -->
<svg version="1.1" id="Layer_1" xmlns="http://www.w3.org/2000/svg" xmlns:xlink="http://www.w3.org/1999/xlink" x="0px" y="0px"
	 viewBox="-256 376.9 82 89" style="enable-background:new -256 376.9 82 89;" xml:space="preserve">
<style type="text/css">
	.st0{fill:#EA5455;fill-opacity:0.3;}
</style>
<path class="st0" d="M-215.4,424.5c8.1,0,17.4-7.3,19.3-15.2c2-8.2-5.1-16.3-13.3-15.3c-1.3,0.2-2.6,0.7-3.8,1.1
	c-6.6,2-11.1,6.3-13.3,12.9C-230,417.9-222.1,424.8-215.4,424.5z M-225.9,410.5c1.3-9.1,10.1-15.1,16.9-15s11.9,5.2,11.6,11.6
	c-0.1,2.5-1.2,4.8-2.6,6.8c-3.3,4.5-7.5,7.7-13,8.9C-220.8,424.3-227.1,418.3-225.9,410.5z"/>
<path class="st0" d="M-201,422.8c-0.6-0.1-1.2-0.2-1.4-0.2c-4.4,0.1-7.5,2.1-9.1,5.7c-0.7,1.7-0.8,3.4,0.4,4.9s2.9,1.9,4.7,1.5
	c3.2-0.6,5.8-2.3,7.8-4.8C-196,426.9-197.1,423.8-201,422.8z M-199.1,428.5c-1.8,2.8-4.4,4.8-7.7,5.3c-3.1,0.5-5-1.9-4-4.9
	c1.1-3.2,3.6-5,6.9-5c1.1,0,2.2,0.1,3.3,0.5C-198.5,425.2-197.9,426.7-199.1,428.5z"/>
<path class="st0" d="M-216.3,426.5c-1.1-1.4-3-1.9-4.7-1.2c-2,0.9-3.3,2.5-4,4.4c-0.9,2.3,0.5,4.1,3,4.1c1.8,0,4-1.3,5.3-3
	C-215.5,429.3-215.3,427.8-216.3,426.5z M-217.3,430.1c-1.2,1.7-2.8,2.8-4.6,3c-2.2,0-3.1-1.3-2.6-3.1c0.6-1.8,3.2-3.7,5-3.7
	c1,0,1.9,0.4,2.5,1.3C-216.5,428.5-216.8,429.4-217.3,430.1z"/>
<path class="st0" d="M-215.4,445.8c-0.6,0.1-1,0.4-1.1,1c-0.1,0.4,0.2,0.7,0.6,0.7c0.6-0.1,1-0.4,1.2-1
	C-214.6,446.1-215,445.9-215.4,445.8z"/>
<path class="st0" d="M-188.6,391.7c0.5,0.1,0.7-0.3,0.7-0.7c0.1-0.5-0.2-0.8-0.7-0.9c-0.5,0-0.8,0.3-0.8,0.7
	C-189.5,391.4-189.1,391.6-188.6,391.7z"/>
<path class="st0" d="M-186.2,397.9c0.5,0.1,0.6-0.5,0.7-0.9c0-0.5-0.2-1-0.7-1s-0.6,0.3-0.6,0.7
	C-186.8,397.2-186.8,397.8-186.2,397.9z"/>
<image style="overflow:visible;" width="60" height="95" xlink:href="69FE6713.jpg"  transform="matrix(0.9139 0 0 0.9139 -242.5993 377.8521)">
</image>
</svg>
