<?xml version="1.0" encoding="utf-8"?>
<!-- Generator: Adobe Illustrator 19.0.0, SVG Export Plug-In . SVG Version: 6.00 Build 0)  -->
<svg version="1.1" id="Layer_1" xmlns="http://www.w3.org/2000/svg" xmlns:xlink="http://www.w3.org/1999/xlink" x="0px" y="0px"
	 viewBox="-53 29.9 489 783" style="enable-background:new -53 29.9 489 783;" xml:space="preserve">
<style type="text/css">
	.st0{fill:#FAE88C;}
	.st1{fill:#FFFFFF;}
	.st2{fill:#CCB400;}
	.st3{fill:#BCB2EB;}
	.st4{fill:#262262;}
	.st5{fill:#CADCA6;}
	.st6{fill:#6F964C;}
	.st7{fill:#375900;}
</style>
<g>
	<g>
		<path class="st0" d="M147.1,640.1h-38.9c-6.5,0-11.9,5.3-11.9,11.9c0,2.1,0.5,4,1.5,5.7H75c-6.6,0-11.9,5.3-11.9,11.9
			c0,6.6,5.3,11.9,11.9,11.9H135c6.6,0,11.9-5.3,11.9-11.9c0-2.1-0.5-4.1-1.5-5.8h1.7c6.5,0,11.9-5.3,11.9-11.9
			C159,645.4,153.7,640.1,147.1,640.1z"/>
		<path class="st0" d="M86.1,638.5h15c3,0,5.3-2.4,5.3-5.3c0-3-2.4-5.3-5.3-5.3h-15c-3,0-5.3,2.4-5.3,5.3
			C80.8,636.1,83.2,638.5,86.1,638.5z"/>
		<path class="st0" d="M145.3,684.1h-28.4c-4.9,0-8.9,4-8.9,8.9c0,4.9,4,8.9,8.9,8.9h28.4c4.9,0,8.9-4,8.9-8.9
			C154.2,688,150.2,684.1,145.3,684.1z"/>
		<path class="st0" d="M78.8,700.8c0-2.6,2.1-4.7,4.7-4.7h12.8c2.6,0,4.7,2.1,4.7,4.7l0,0c0,2.6-2.1,4.7-4.7,4.7H83.5
			C80.9,705.5,78.8,703.4,78.8,700.8L78.8,700.8z"/>
	</g>
	<g>
		<g>
			<g>
				<path class="st1" d="M140.8,681c-1.9,0-3.5,1.6-3.5,3.5c0,1.9,1.6,3.5,3.5,3.5c1.9,0,3.5-1.6,3.5-3.5
					C144.3,682.6,142.7,681,140.8,681z"/>
			</g>
		</g>
		<g>
			<g>
				<path class="st1" d="M74.5,674.5c-0.8,0-1.4,0.6-1.4,1.4c0,0.8,0.6,1.4,1.4,1.4c0.8,0,1.4-0.6,1.4-1.4
					C75.9,675.2,75.3,674.5,74.5,674.5z"/>
			</g>
		</g>
		<g>
			<g>
				<path class="st1" d="M93,625.8c-1.1,0-2,0.9-2,2c0,1.1,0.9,2,2,2c1.1,0,2-0.9,2-2C94.9,626.7,94.1,625.8,93,625.8z"/>
			</g>
		</g>
	</g>
	<g>
		<path class="st2" d="M140.8,690.2c-3.1,0-5.7-2.6-5.7-5.7c0-3.1,2.6-5.7,5.7-5.7s5.7,2.6,5.7,5.7
			C146.5,687.6,143.9,690.2,140.8,690.2z M140.8,681c-1.9,0-3.5,1.6-3.5,3.5c0,1.9,1.6,3.5,3.5,3.5c1.9,0,3.5-1.6,3.5-3.5
			C144.3,682.6,142.7,681,140.8,681z"/>
	</g>
	<g>
		<path class="st2" d="M74.5,679c-1.7,0-3-1.4-3-3c0-1.7,1.4-3.1,3-3.1c1.7,0,3,1.4,3,3.1C77.6,677.6,76.2,679,74.5,679z
			 M74.5,674.5c-0.8,0-1.4,0.6-1.4,1.4c0,0.8,0.6,1.4,1.4,1.4c0.8,0,1.4-0.6,1.4-1.4C75.9,675.2,75.3,674.5,74.5,674.5z"/>
	</g>
	<g>
		<path class="st2" d="M93,631.4c-2,0-3.6-1.6-3.6-3.6c0-2,1.6-3.6,3.6-3.6c2,0,3.6,1.6,3.6,3.6C96.6,629.8,95,631.4,93,631.4z
			 M93,625.8c-1.1,0-2,0.9-2,2c0,1.1,0.9,2,2,2c1.1,0,2-0.9,2-2C94.9,626.7,94.1,625.8,93,625.8z"/>
	</g>
	<g>
		<g>
			<path class="st1" d="M94.2,684c0.2,0,0.4,0.1,0.6,0.2c0.1,0,5.8,3,13.2,3c7.7,0,14.5-3.2,20-9.4c11.9-13.6,7.5-24.2,3.8-29.3
				c-0.1-0.1-0.2-0.2-0.2-0.3c-0.3-0.5-0.3-1.2,0.2-1.6c0.7-0.7,2.5-2.9,2.4-4.7c0-0.7-0.3-1.2-0.8-1.7c-0.5-0.4-0.9-0.7-1.4-0.7
				c-1.2,0-2.5,1.2-3.5,2.1c-0.8,0.7-1.4,1.2-2,1.3c0,0-0.1,0-0.1,0h0c-0.3,0-0.7-0.1-1.5-0.3c-2-0.6-6-1.7-11-1.7
				c-7.9,0-14.5,3-19.7,8.9c-11,12.7-8,21.6-5.3,29.4c0.2,0.5,0,1-0.4,1.4c-0.7,0.6-2.5,2.5-2.5,4.2c0,0.6,0.2,1.1,0.6,1.5
				c0.6,0.6,1.1,0.8,1.7,0.8l0,0c1.3,0,2.7-1,3.9-1.9c0.5-0.4,1-0.7,1.5-1C93.8,684.1,94,684,94.2,684z"/>
		</g>
		<g>
			<path class="st1" d="M92.2,664.7c-0.1,0-0.2,0-0.4,0c-0.7-0.2-1.1-0.9-0.9-1.6c5.6-19.5,25.5-18.3,25.7-18.2
				c0.7,0.1,1.2,0.7,1.2,1.4c0,0.7-0.7,1.3-1.4,1.2l0,0c-0.7,0-18-1-23,16.4C93.3,664.3,92.8,664.7,92.2,664.7z"/>
		</g>
		<g>
			<path class="st1" d="M92.8,675.9c-0.5,0-1-0.3-1.2-0.8c-1.1-2.6-1.1-6.1-1.1-6.3c0-0.7,0.6-1.3,1.3-1.3h0c0.7,0,1.3,0.6,1.3,1.3
				c0,0,0,3.2,0.9,5.3c0.3,0.7,0,1.4-0.7,1.7C93.1,675.9,92.9,675.9,92.8,675.9z"/>
		</g>
	</g>
	<g>
		<g>
			<path class="st2" d="M108,689.8c-6.6,0-11.9-2.2-13.7-3c-0.2,0.1-0.4,0.3-0.7,0.5c-1.4,1-3.3,2.3-5.4,2.3l0,0
				c-1.3,0-2.5-0.5-3.6-1.6c-1-0.9-1.4-2.1-1.4-3.4c0.1-2.3,1.8-4.4,2.7-5.4c-2.6-7.6-5.5-17.8,6.1-31.2c5.6-6.5,12.9-9.7,21.6-9.7
				c5.3,0,9.6,1.2,11.7,1.8c0.2,0.1,0.5,0.1,0.6,0.2c0.2-0.1,0.4-0.4,0.7-0.6c1.2-1.1,3.1-2.7,5.2-2.7c1.2,0,2.2,0.5,3.2,1.4
				c1,1,1.6,2.2,1.6,3.5c0,2.3-1.5,4.6-2.5,5.7c6.6,9.6,5,21.2-4.4,31.9C123.8,686.3,116.5,689.8,108,689.8z M94.2,684
				c0.2,0,0.4,0.1,0.6,0.2c0.1,0,5.8,3,13.2,3c7.7,0,14.5-3.2,20-9.4c11.9-13.6,7.5-24.2,3.8-29.3c-0.1-0.1-0.2-0.2-0.2-0.3
				c-0.3-0.5-0.3-1.2,0.2-1.6c0.7-0.7,2.5-2.9,2.4-4.7c0-0.7-0.3-1.2-0.8-1.7c-0.5-0.4-0.9-0.7-1.4-0.7c-1.2,0-2.5,1.2-3.5,2.1
				c-0.8,0.7-1.4,1.2-2,1.3c0,0-0.1,0-0.1,0h0c-0.3,0-0.7-0.1-1.5-0.3c-2-0.6-6-1.7-11-1.7c-7.9,0-14.5,3-19.7,8.9
				c-11,12.7-8,21.6-5.3,29.4c0.2,0.5,0,1-0.4,1.4c-0.7,0.6-2.5,2.5-2.5,4.2c0,0.6,0.2,1.1,0.6,1.5c0.6,0.6,1.1,0.8,1.7,0.8l0,0
				c1.3,0,2.7-1,3.9-1.9c0.5-0.4,1-0.7,1.5-1C93.8,684.1,94,684,94.2,684z"/>
		</g>
		<g>
			<path class="st2" d="M92.2,664.7c-0.1,0-0.2,0-0.4,0c-0.7-0.2-1.1-0.9-0.9-1.6c5.6-19.5,25.5-18.3,25.7-18.2
				c0.7,0.1,1.2,0.7,1.2,1.4c0,0.7-0.7,1.3-1.4,1.2l0,0c-0.7,0-18-1-23,16.4C93.3,664.3,92.8,664.7,92.2,664.7z"/>
		</g>
		<g>
			<path class="st2" d="M92.8,675.9c-0.5,0-1-0.3-1.2-0.8c-1.1-2.6-1.1-6.1-1.1-6.3c0-0.7,0.6-1.3,1.3-1.3h0c0.7,0,1.3,0.6,1.3,1.3
				c0,0,0,3.2,0.9,5.3c0.3,0.7,0,1.4-0.7,1.7C93.1,675.9,92.9,675.9,92.8,675.9z"/>
		</g>
	</g>
</g>
<g>
	<g>
		<path class="st3" d="M186,421.4h-55.4c-9.3,0-16.9,7.6-16.9,16.9c0,3,0.8,5.8,2.1,8.2H83.4c-9.3,0-16.9,7.6-16.9,16.9
			c0,9.3,7.6,16.9,16.9,16.9h85.4c9.3,0,16.9-7.6,16.9-16.9c0-3-0.8-5.8-2.1-8.2h2.5c9.3,0,16.9-7.6,16.9-16.9
			C202.9,428.9,195.3,421.4,186,421.4z"/>
		<path class="st3" d="M99.2,419.1h21.4c4.2,0,7.6-3.4,7.6-7.6c0-4.2-3.4-7.6-7.6-7.6H99.2c-4.2,0-7.6,3.4-7.6,7.6
			C91.6,415.7,95,419.1,99.2,419.1z"/>
		<path class="st3" d="M180.1,486h-33.8c-5.8,0-10.6,4.7-10.6,10.6c0,5.8,4.7,10.6,10.6,10.6h33.8c5.8,0,10.6-4.7,10.6-10.6
			C190.7,490.7,185.9,486,180.1,486z"/>
		<path class="st3" d="M83.4,505c0-4.2,3.4-7.6,7.6-7.6h20.7c4.2,0,7.6,3.4,7.6,7.6l0,0c0,4.2-3.4,7.6-7.6,7.6H91
			C86.8,512.6,83.4,509.2,83.4,505L83.4,505z"/>
	</g>
	<g>
		<g>
			<g>
				<path class="st1" d="M189,447.9c-2.8,0-5,2.2-5,5c0,2.8,2.2,5,5,5s5-2.2,5-5C194,450.2,191.7,447.9,189,447.9z"/>
			</g>
		</g>
		<g>
			<g>
				<path class="st1" d="M82.6,455.6c-1.1,0-2,0.9-2,2c0,1.1,0.9,2,2,2c1.1,0,2-0.9,2-2C84.7,456.5,83.8,455.6,82.6,455.6z"/>
			</g>
		</g>
		<g>
			<g>
				<path class="st1" d="M108.9,401c-1.5,0-2.8,1.3-2.8,2.8c0,1.5,1.3,2.8,2.8,2.8c1.5,0,2.8-1.3,2.8-2.8
					C111.7,402.3,110.5,401,108.9,401z"/>
			</g>
		</g>
		<path class="st1" d="M154.1,413.6c11.3,1.6,19.2,12.1,17.6,23.4c-0.3,2.4-1.1,4.6-2.1,6.7c-3.6-3.4-8.2-5.8-13.4-6.5
			c-4.6-0.7-9.1,0.1-13.1,1.8c-0.2-6.9-3.2-13.2-8.1-17.6C139.4,415.6,146.8,412.6,154.1,413.6z M98,436.7
			c1.6-11.3,12.1-19.2,23.4-17.6c10.8,1.5,18.5,11.2,17.7,22c-5.5,3.7-9.5,9.6-10.6,16.6c-3.9,2.2-8.4,3-12.9,2.4
			C104.3,458.5,96.4,448,98,436.7z M92.6,475.8c3-10.2,7.4-15.7,9.5-17.8c3.5,3.1,7.9,5.3,12.9,6c3.3,0.5,6.7,0.2,10-0.7
			c-2.1,2.5-7,7.2-15.1,7.8c-1.1,0.1-1.9,1-1.8,2.1c0.1,0.9,0.8,1.6,1.7,1.8c0.1,0,0.3,0,0.4,0c10.1-0.8,16-6.8,18.2-9.8
			c0.6,3.6,1.9,7,3.9,10C113.4,489.5,96.8,478.9,92.6,475.8z M149.8,482c-11-1.6-18.8-11.6-17.7-22.6c0-0.2,0.1-0.4,0-0.5
			c0-0.1,0-0.2,0-0.2c1.6-11.3,12.1-19.2,23.4-17.6c11.3,1.6,19.2,12.1,17.6,23.4C171.6,475.7,161.1,483.6,149.8,482z"/>
	</g>
	<g>
		<path class="st4" d="M189,461c-4.5,0-8.1-3.6-8.1-8.1c0-4.5,3.6-8.1,8.1-8.1c4.5,0,8.1,3.6,8.1,8.1C197.1,457.4,193.5,461,189,461
			z M189,447.9c-2.8,0-5,2.2-5,5c0,2.8,2.2,5,5,5s5-2.2,5-5C194,450.2,191.7,447.9,189,447.9z"/>
	</g>
	<g>
		<path class="st4" d="M82.6,462c-2.4,0-4.3-1.9-4.3-4.3c0-2.4,1.9-4.3,4.3-4.3c2.4,0,4.3,1.9,4.3,4.3C87,460,85,462,82.6,462z
			 M82.6,455.6c-1.1,0-2,0.9-2,2c0,1.1,0.9,2,2,2c1.1,0,2-0.9,2-2C84.7,456.5,83.8,455.6,82.6,455.6z"/>
	</g>
	<g>
		<path class="st4" d="M176.6,499.2c-2.4,0-4.3-1.9-4.3-4.3c0-2.4,1.9-4.3,4.3-4.3c2.4,0,4.3,1.9,4.3,4.3
			C180.9,497.3,179,499.2,176.6,499.2z M176.6,492.9c-1.1,0-2,0.9-2,2c0,1.1,0.9,2,2,2c1.1,0,2-0.9,2-2
			C178.6,493.8,177.7,492.9,176.6,492.9z"/>
	</g>
	<g>
		<path class="st4" d="M108.9,408.9c-2.8,0-5.1-2.3-5.1-5.1c0-2.8,2.3-5.1,5.1-5.1s5.1,2.3,5.1,5.1
			C114.1,406.6,111.8,408.9,108.9,408.9z M108.9,401c-1.5,0-2.8,1.3-2.8,2.8c0,1.5,1.3,2.8,2.8,2.8c1.5,0,2.8-1.3,2.8-2.8
			C111.7,402.3,110.5,401,108.9,401z"/>
	</g>
	<g>
		<path class="st4" d="M172.3,446.7c1.7-2.8,2.8-5.9,3.2-9.2c1.9-13.4-7.5-25.9-20.9-27.8c-8.7-1.2-17.5,2.4-22.8,9.3
			c-2.9-1.9-6.3-3.2-9.9-3.7c-13.4-1.9-25.9,7.5-27.8,20.9c-1,7,1.1,13.8,5.3,18.9c-2.5,2.6-7.6,9-10.9,20.9c-0.2,0.7,0,1.5,0.6,2
			c0.1,0.1,7.6,6.5,18.5,8c7.7,1.1,17.2-0.2,27.1-7.7c3.7,4,8.7,6.8,14.5,7.6c13.4,1.9,25.9-7.5,27.8-20.9
			C178,458.2,176.1,451.8,172.3,446.7z M154.1,413.6c11.3,1.6,19.2,12.1,17.6,23.4c-0.3,2.4-1.1,4.6-2.1,6.7
			c-3.6-3.4-8.2-5.8-13.4-6.5c-4.6-0.7-9.1,0.1-13.1,1.8c-0.2-6.9-3.2-13.2-8.1-17.6C139.4,415.6,146.8,412.6,154.1,413.6z
			 M98,436.7c1.6-11.3,12.1-19.2,23.4-17.6c10.8,1.5,18.5,11.2,17.7,22c-5.5,3.7-9.5,9.6-10.6,16.6c-3.9,2.2-8.4,3-12.9,2.4
			C104.3,458.5,96.4,448,98,436.7z M92.6,475.8c3-10.2,7.4-15.7,9.5-17.8c3.5,3.1,7.9,5.3,12.9,6c3.3,0.5,6.7,0.2,10-0.7
			c-2.1,2.5-7,7.2-15.1,7.8c-1.1,0.1-1.9,1-1.8,2.1c0.1,0.9,0.8,1.6,1.7,1.8c0.1,0,0.3,0,0.4,0c10.1-0.8,16-6.8,18.2-9.8
			c0.6,3.6,1.9,7,3.9,10C113.4,489.5,96.8,478.9,92.6,475.8z M149.8,482c-11-1.6-18.8-11.6-17.7-22.6c0-0.2,0.1-0.4,0-0.5
			c0-0.1,0-0.2,0-0.2c1.6-11.3,12.1-19.2,23.4-17.6c11.3,1.6,19.2,12.1,17.6,23.4C171.6,475.7,161.1,483.6,149.8,482z"/>
		<path class="st4" d="M111.2,446.5c0.6,0.1,1.2-0.1,1.7-0.6l6.9-7.3c0.6-0.6,0.7-1.6,0.3-2.3l-4.7-7.7c-0.4-0.7-1.2-1-1.9-0.9
			l-8.5,1.2c-0.8,0.1-1.4,0.7-1.6,1.4l-2.3,8.9c-0.2,0.8,0.2,1.7,0.9,2.2l8.5,4.8C110.7,446.4,111,446.4,111.2,446.5z M106.8,432.5
			l5.9-0.8l3.2,5.3l-4.9,5.1l-5.9-3.4L106.8,432.5z"/>
		<path class="st4" d="M168,470.1l-0.8-9c-0.1-0.8-0.6-1.4-1.3-1.7l-8.1-2.7c-0.7-0.2-1.6,0-2.1,0.6l-6,6.9
			c-0.6,0.7-0.6,1.6-0.1,2.4l5.5,8.1c0.3,0.5,0.8,0.8,1.3,0.8c0.3,0,0.6,0,0.9-0.1l9.4-3.4C167.6,471.8,168.1,471,168,470.1z
			 M157.4,471.3l-3.8-5.7l4.2-4.8l5.7,1.9l0.5,6.2L157.4,471.3z"/>
		<path class="st4" d="M150.4,429.7c0.3,0.5,0.8,0.8,1.3,0.8c0.3,0,0.6,0,0.9-0.1l7.6-2.7c0.8-0.3,1.3-1.1,1.3-2l-0.6-7.2
			c-0.1-0.8-0.6-1.4-1.3-1.7l-6.5-2.2c-0.7-0.2-1.6,0-2.1,0.6l-4.8,5.6c-0.6,0.7-0.6,1.6-0.1,2.4L150.4,429.7z M153.1,418.7l4.1,1.4
			l0.4,4.4l-4.8,1.7l-2.7-4L153.1,418.7z"/>
	</g>
	<path class="st4" d="M-0.2,178.8c0.6,0.1,1.2-0.1,1.7-0.6l6.9-7.3c0.6-0.6,0.7-1.6,0.3-2.3L4,160.9c-0.4-0.7-1.2-1-1.9-0.9
		l-8.5,1.2c-0.8,0.1-1.4,0.7-1.6,1.4l-2.3,8.9c-0.2,0.8,0.2,1.7,0.9,2.2l8.5,4.8C-0.7,178.7-0.4,178.8-0.2,178.8z M-4.6,164.9
		l5.9-0.8l3.2,5.3l-4.9,5.1l-5.9-3.4L-4.6,164.9z"/>
	<path class="st4" d="M298.5,346.2l-0.8-9c-0.1-0.8-0.6-1.4-1.3-1.7l-8.1-2.7c-0.7-0.2-1.6,0-2.1,0.6l-6,6.9
		c-0.6,0.7-0.6,1.6-0.1,2.4l5.5,8.1c0.3,0.5,0.8,0.8,1.3,0.8c0.3,0,0.6,0,0.9-0.1l9.4-3.4C298,347.9,298.5,347,298.5,346.2z
		 M287.9,347.4l-3.8-5.7l4.2-4.8l5.7,1.9l0.5,6.2L287.9,347.4z"/>
	<path class="st4" d="M308.5,284.5c0.3,0.5,0.8,0.8,1.3,0.8c0.3,0,0.6,0,0.9-0.1l7.6-2.7c0.8-0.3,1.3-1.1,1.3-2l-0.6-7.2
		c-0.1-0.8-0.6-1.4-1.3-1.7l-6.5-2.2c-0.7-0.2-1.6,0-2.1,0.6l-4.8,5.6c-0.6,0.7-0.6,1.6-0.1,2.4L308.5,284.5z M311.2,273.5l4.1,1.4
		l0.4,4.4l-4.8,1.7l-2.7-4L311.2,273.5z"/>
</g>
<g>
	<g>
		<path class="st5" d="M362.7,170.3l-13.7-0.2c1.3-2,2.1-4.4,2.1-6.9c0.1-3.6-1.4-7-3.8-9.4l10.2,0.2c4.6,0.1,8.4-3.6,8.4-8.2
			c0.1-4.6-3.6-8.4-8.2-8.4l-40.8-0.6c-4.6-0.1-8.4,3.6-8.4,8.2c0,1.7,0.5,3.3,1.3,4.7l-35.2-0.5c-7.2-0.1-13.1,5.6-13.2,12.8
			c-0.1,7.2,5.6,13.1,12.8,13.2l19.7,0.3c-1.3,2-2.1,4.4-2.1,6.9c-0.1,3.4,1.2,6.5,3.3,8.8l-10.8-0.2c-4.6-0.1-8.4,3.6-8.4,8.2
			c-0.1,4.6,3.6,8.4,8.2,8.4l47,0.7c4.6,0.1,7.3-3.6,7.4-8.2c0-1.5-0.4-2.9-1-4.1l24.7,0.4c7.2,0.1,13.1-5.6,13.2-12.8
			C375.5,176.3,369.8,170.4,362.7,170.3z"/>
		<path class="st5" d="M287.9,142.5l6.7,0.1c2.5,0,4.6-2,4.7-4.5c0-2.6-2-4.6-4.5-4.7l-6.7-0.1c-2.5,0-4.6,2-4.7,4.5
			C283.4,140.3,285.4,142.4,287.9,142.5z"/>
		<path class="st5" d="M360.8,214.9c0,3.2-2.6,5.7-5.8,5.6l-16.6-0.3c-3.2,0-5.7-2.6-5.6-5.8l0,0c0-3.2,2.6-5.7,5.8-5.6l16.6,0.3
			C358.3,209.2,360.9,211.8,360.8,214.9L360.8,214.9z"/>
	</g>
	<g>
		<path class="st1" d="M280.1,177.5c-1.1,0-1.9-0.9-1.9-1.9c0-1.1,0.9-1.9,1.9-1.9c1.1,0,1.9,0.9,1.9,1.9
			C282,176.7,281.2,177.5,280.1,177.5z"/>
		<g>
			<path class="st6" d="M280.1,179.7c-2.3,0-4.1-1.9-4.1-4.2c0-2.3,1.9-4.1,4.2-4.1c2.3,0,4.1,1.9,4.1,4.2
				C284.2,177.9,282.3,179.7,280.1,179.7z M280.2,173.7c-1.1,0-1.9,0.8-1.9,1.9c0,1.1,0.8,1.9,1.9,1.9c1.1,0,1.9-0.8,1.9-1.9
				C282.1,174.5,281.2,173.7,280.2,173.7z"/>
		</g>
	</g>
	<g>
		<path class="st1" d="M357.7,195.3c1.5,0,2.6,1.2,2.6,2.7c0,1.5-1.2,2.6-2.7,2.6c-1.5,0-2.6-1.2-2.6-2.7
			C355,196.5,356.2,195.3,357.7,195.3z"/>
		<g>
			<path class="st6" d="M357.6,202.8c-2.7,0-4.8-2.3-4.8-5c0-2.7,2.3-4.8,5-4.8c2.7,0,4.8,2.3,4.8,5
				C362.5,200.7,360.3,202.9,357.6,202.8z M357.7,195.3c-1.5,0-2.7,1.2-2.7,2.6c0,1.5,1.2,2.7,2.6,2.7c1.5,0,2.7-1.2,2.7-2.6
				C360.4,196.5,359.2,195.3,357.7,195.3z"/>
		</g>
	</g>
	<g>
		<path class="st1" d="M361.6,152.3c1.1,0,1.9,0.9,1.9,1.9s-0.9,1.9-1.9,1.9c-1.1,0-1.9-0.9-1.9-1.9
			C359.7,153.1,360.6,152.2,361.6,152.3z"/>
		<g>
			<path class="st6" d="M361.5,158.3c-2.3,0-4.1-1.9-4.1-4.2c0-2.3,1.9-4.1,4.2-4.1c2.3,0,4.1,1.9,4.1,4.2S363.8,158.3,361.5,158.3z
				 M361.6,152.3c-1.1,0-1.9,0.8-1.9,1.9c0,1.1,0.8,1.9,1.9,1.9c1.1,0,1.9-0.8,1.9-1.9S362.7,152.3,361.6,152.3z"/>
		</g>
	</g>
	<g>
		<path class="st1" d="M296.9,136.3c-2.1,0-3.9-1.8-3.8-3.9c0-2.1,1.8-3.9,3.9-3.8c2.1,0,3.9,1.8,3.8,3.9
			C300.8,134.6,299,136.3,296.9,136.3z"/>
		<g>
			<path class="st6" d="M296.9,138.7c-3.5-0.1-6.2-2.9-6.2-6.4c0.1-3.5,2.9-6.2,6.4-6.2c3.5,0.1,6.2,2.9,6.2,6.4
				C303.2,135.9,300.3,138.7,296.9,138.7z M297,128.5c-2.1,0-3.9,1.7-3.9,3.8c0,2.1,1.7,3.9,3.8,3.9c2.1,0,3.9-1.7,3.9-3.8
				C300.9,130.3,299.2,128.5,297,128.5z"/>
		</g>
	</g>
	<path class="st1" d="M338.8,140.3c-9.2,1.9-13.9-1.5-15.8-3.5C333,135.1,337.2,138.3,338.8,140.3z"/>
	<path class="st1" d="M348,167.5c-0.7,11.1-7,22-15.6,27.4c-0.4,0-1.3,0.1-2.3,0.1c-2.4,0-4.2-0.5-4.9-1.4c-1.8-2.2-4.2-2.5-5.3-2.6
		c0,0-0.1,0-0.1,0c0,0,0,0,0,0c0,0-0.1,0-0.1,0c0,0,0,0-0.1,0c-0.8,0-4.1,0.2-6.1,2.4c-0.7,0.8-2.5,1.3-5,1.2c-1,0-1.9-0.1-2.3-0.2
		c-8.5-5.6-14.4-16.7-14.8-27.8c-0.2-7.3,2-13.2,6.4-16.4c3.5-2.6,7.2-3.8,11.2-3.8c4.6,0.1,8.4,1.9,10.2,3.1c0.5,0.3,1.1,0.3,1.6,0
		c1.9-1.1,5.8-2.8,10.3-2.7c3.9,0.1,7.6,1.4,11,4.1C346.4,154.3,348.5,160.2,348,167.5z"/>
	<g>
		<g>
			<path class="st6" d="M330,198.1L330,198.1c-3.5-0.1-5.9-0.9-7.3-2.5c-1.1-1.3-2.6-1.5-3.2-1.5c-1,0-2.8,0.3-3.8,1.4
				c-1.4,1.5-3.8,2.3-7.3,2.2c-1.7,0-3-0.2-3.1-0.3c-0.2,0-0.4-0.1-0.6-0.2c-9.5-6.1-16.1-18.3-16.5-30.5c-0.3-8.4,2.5-15.1,7.7-19
				c4-3,8.4-4.4,13-4.4c4.7,0.1,8.7,1.8,11,3.1c2.4-1.2,6.4-2.8,11.1-2.7c4.6,0.1,9,1.7,12.9,4.8c5.1,4,7.7,10.9,7.1,19.2
				c-0.8,12.2-7.8,24.2-17.4,30c-0.2,0.1-0.4,0.2-0.6,0.2C333.1,197.9,331.7,198.1,330,198.1z M319.8,191c1.1,0.1,3.5,0.4,5.3,2.6
				c0.7,0.8,2.5,1.3,4.9,1.4c1,0,1.9-0.1,2.3-0.1c8.7-5.3,14.9-16.3,15.6-27.4c0.5-7.3-1.6-13.2-5.9-16.6c-3.4-2.7-7.1-4-11-4.1
				c-4.6-0.1-8.4,1.7-10.3,2.7c-0.5,0.3-1.1,0.3-1.6,0c-1.9-1.1-5.7-3-10.2-3.1c-3.9-0.1-7.7,1.2-11.2,3.8
				c-4.4,3.2-6.7,9.1-6.4,16.4c0.4,11.1,6.3,22.3,14.8,27.8c0.4,0.1,1.3,0.2,2.3,0.2c2.4,0,4.3-0.4,5-1.2c2-2.3,5.3-2.4,6.1-2.4
				c0,0,0,0,0.1,0c0,0,0.1,0,0.1,0c0,0,0,0,0,0l0,0C319.7,191,319.8,191,319.8,191z"/>
		</g>
		<g>
			<path class="st6" d="M320,148.3c-0.9,0-1.5-0.7-1.5-1.6l0.2-11c0-0.7,0.5-1.3,1.2-1.5c19-4.4,22.7,6.1,22.9,6.5
				c0.1,0.4,0.1,0.8-0.1,1.2c-0.2,0.4-0.5,0.7-1,0.8c-10.7,3-16.9-0.3-20-3l-0.1,7C321.5,147.6,320.8,148.3,320,148.3z M323,136.8
				c1.9,2,6.7,5.4,15.8,3.5C337.2,138.3,333,135.1,323,136.8z"/>
		</g>
		<g>
			<path class="st6" d="M299.2,175.3c-0.6,0-1.2-0.4-1.5-1.1c-4.8-15.1,5.6-21.8,5.7-21.9c0.7-0.5,1.7-0.2,2.1,0.5
				c0.5,0.7,0.2,1.7-0.5,2.1c-0.4,0.2-8.4,5.6-4.4,18.3c0.3,0.8-0.2,1.7-1,1.9C299.5,175.3,299.3,175.3,299.2,175.3z"/>
		</g>
	</g>
</g>
<g>
	<path class="st7" d="M355.3,516.2c-3,0.6-5.6,1.8-7.5,3c8.1-12.3,19.1-26.2,19.3-26.4c0.6-0.8,0.5-1.9-0.3-2.5
		c-0.8-0.6-1.9-0.5-2.5,0.3c-0.4,0.5-5.2,6.6-10.8,14.1c1.5-15-10.9-24-11-24.1c-0.4-0.3-1-0.4-1.5-0.3c-0.5,0.1-0.9,0.5-1.2,1
		c-9.5,20,2.3,30.2,6.8,33.2c-3.5,5.2-6.8,10.4-8.7,14.5c1.7-20.5-17-29.5-17.2-29.6c-0.5-0.2-1-0.2-1.5,0c-0.5,0.2-0.8,0.6-1,1.2
		c-7.6,27.4,12.8,35.5,15.8,36.6c-3.1,5.1-7.8,10.7-12.2,15.3c4.4-17.2-10-27.6-10.2-27.7c-0.4-0.3-1-0.4-1.5-0.3
		c-0.5,0.1-0.9,0.5-1.2,1c-9.5,19.9,2.6,30,6.9,32.8c-2.2,1.9-4,3.4-5,4c-0.9,0.5-1.2,1.6-0.7,2.5c0.4,0.7,1.2,1,1.9,0.9
		c0.2,0,0.4-0.1,0.5-0.2c3.1-1.8,11.2-9,18.1-17.3c8.8,7.7,17.7,7.9,23.6,6.7c6.9-1.4,11.5-4.9,11.7-5.1c0.4-0.3,0.7-0.8,0.7-1.4
		c0-0.5-0.2-1-0.6-1.4c-9.9-9.2-18.7-9.7-24.3-8.6c-2,0.4-3.7,1-5.2,1.7c1.6-2.4,2.8-4.9,3.7-7.1c0.7-2,2-4.5,3.6-7.2
		c8.9,8,18,8.3,24,7.1c6.9-1.4,11.5-4.9,11.7-5.1c0.4-0.3,0.7-0.8,0.7-1.4c0-0.5-0.2-1-0.6-1.4C369.7,515.6,360.9,515,355.3,516.2z
		 M342,484.9c3.7,3.4,11.5,12.6,6.1,26.2C344.3,508.6,335.6,500.6,342,484.9z M311.2,528.9c3.6,3.4,11.3,12.4,5.9,25.7
		C313.4,552.1,304.9,544.3,311.2,528.9z M321.1,503.6c4.8,3,16.3,12.1,12.5,29.3C328.8,531,316.5,523.7,321.1,503.6z M361.8,547.8
		c-1.8,1-4.7,2.4-8.3,3.2c-7.1,1.4-13.8-0.3-19.8-5.2c1.7-1.3,4.7-3.3,8.7-4.1C348.8,540.3,355.3,542.4,361.8,547.8z M367.1,529
		c-7.1,1.4-13.8-0.3-19.8-5.2c1.7-1.3,4.7-3.3,8.7-4.1c6.4-1.3,12.9,0.8,19.4,6.2C373.6,526.9,370.7,528.3,367.1,529z"/>
	<path class="st7" d="M86,252.2c3.7,3.4,11.5,12.6,6.1,26.2C88.3,275.8,79.6,267.9,86,252.2z M55.2,296.2
		c3.6,3.4,11.3,12.4,5.9,25.7C57.4,319.4,48.9,311.6,55.2,296.2z M65.1,270.9c4.8,3,16.3,12.1,12.5,29.3
		C72.8,298.2,60.5,291,65.1,270.9z M111.1,296.3c-7.1,1.4-13.8-0.3-19.8-5.2c1.7-1.3,4.7-3.3,8.7-4.1c6.4-1.3,12.9,0.8,19.4,6.2
		C117.6,294.2,114.7,295.6,111.1,296.3z"/>
	<path class="st7" d="M361.4,490.7c1.4-0.3,2.4-1.8,2-3.4c-0.3-1.6-1.7-2.6-3.2-2.3c-1.4,0.3-2.4,1.8-2,3.4
		C358.6,489.9,360,491,361.4,490.7z M360.7,487.1c0.5-0.1,1,0.2,1.1,0.5c0.1,0.3-0.3,0.8-0.8,0.9c-0.5,0.1-1-0.2-1.1-0.5
		C359.9,487.7,360.2,487.2,360.7,487.1z"/>
	<path class="st7" d="M370,485.2c1.4-0.3,2.4-1.8,2-3.4c-0.3-1.6-1.8-2.6-3.2-2.3c-1.4,0.3-2.4,1.8-2,3.4
		C367.2,484.4,368.6,485.5,370,485.2z M369.3,481.6c0.5-0.1,1,0.2,1.1,0.5c0.1,0.3-0.3,0.8-0.8,0.9c-0.5,0.1-1-0.2-1.1-0.5
		C368.5,482.2,368.8,481.7,369.3,481.6z"/>
	<path class="st7" d="M371.2,490.7c-1.4,0.3-2.4,1.8-2,3.4c0.3,1.6,1.7,2.6,3.2,2.3c1.4-0.3,2.4-1.8,2-3.4
		C374.1,491.5,372.6,490.5,371.2,490.7z M371.9,494.3c-0.5,0.1-1-0.2-1.1-0.5c-0.1-0.3,0.3-0.8,0.8-0.9c0.5-0.1,1,0.2,1.1,0.5
		C372.7,493.7,372.4,494.2,371.9,494.3z"/>
	<path class="st7" d="M366.3,499.6c-1.4,0.3-2.4,1.8-2,3.4c0.3,1.6,1.8,2.6,3.2,2.3c1.4-0.3,2.4-1.8,2-3.4
		C369.2,500.4,367.8,499.4,366.3,499.6z M367.1,503.2c-0.5,0.1-1-0.2-1.1-0.5c-0.1-0.3,0.2-0.8,0.8-0.9c0.5-0.1,1,0.2,1.1,0.5
		C367.9,502.6,367.6,503.1,367.1,503.2z"/>
</g>
</svg>
